<svg width="56" height="66" viewBox="0 0 56 66" fill="none" xmlns="http://www.w3.org/2000/svg">
<path d="M55.6798 0.914062H44.4507V22.6285H55.6798V0.914062Z" fill="white"/>
<path d="M15.4065 25.9336H11.8535V30.4603C11.8535 40.805 6.43971 41.7065 3.30617 41.6712H0.390137V50.6364H14.8376C20.0494 46.7464 22.681 39.6373 22.681 31.9104C20.3506 31.0265 17.5182 29.1174 15.4065 25.9336Z" fill="white"/>
<path d="M41.1494 12.6028V0.914062H32.1826V15.5194C32.1826 15.9973 32.2997 20.0108 28.1265 20.0108C23.9365 20.0108 23.1824 15.0591 26.7856 10.2853L19.2099 5.8468C19.2099 5.8468 15.4226 10.25 15.4226 16.4562C15.4226 22.6625 18.5729 25.6333 18.5729 25.6333C18.5729 25.6333 20.6344 27.7377 22.9302 28.7805C22.9302 28.7805 24.9248 29.6291 26.3828 29.7704C34.0756 30.4601 37.4446 25.6509 37.4446 25.6509C41.2331 21.3196 41.1494 17.6945 41.1494 12.6028Z" fill="white"/>
<path d="M26.2676 32.7966V50.6387H37.3294V29.4375C35.8869 30.6404 31.9491 33.3451 26.2676 32.7966Z" fill="white"/>
<path d="M48.4566 24.2734L41.9039 31.0988C41.9039 31.0988 48.5402 34.6887 48.5402 39.3037C48.5402 41.1963 46.9986 41.1774 45.9588 41.1774H40.814V50.6381H55.5794V32.2841C55.5626 32.2841 53.5011 27.8456 48.4566 24.2734Z" fill="white"/>
<path d="M12.9597 54.1211H16.2785V62.273H21.1043V65.4203H12.9597V54.1211Z" fill="white"/>
<path d="M22.3284 54.1211H27.239C28.2106 54.1211 28.9982 54.2623 29.6017 54.546C30.2052 54.8285 30.6916 55.2181 31.0932 55.7489C31.4792 56.2621 31.931 56.8813 32.115 57.5697C32.2823 58.2595 32.3827 58.9845 32.3827 59.7625C32.3827 60.9831 32.2488 61.9199 31.9967 62.5743C31.729 63.2464 31.1589 63.9361 30.6892 64.3775C30.2196 64.8377 29.7678 64.9966 29.2312 65.1555C28.5106 65.3673 27.8401 65.4732 27.2534 65.4732H22.3427L22.3284 54.1211ZM25.6471 57.1978V62.3083H26.4682C27.1554 62.3083 27.6585 62.22 27.9429 62.0611C28.2441 61.9023 28.4628 61.6186 28.6301 61.2125C28.7974 60.8053 28.8811 60.6817 28.8811 59.7801C28.8811 58.5772 28.697 58.2948 28.3277 57.8345C27.9585 57.3919 27.3394 57.1625 26.4837 57.1625L25.6471 57.1978Z" fill="white"/>
<path d="M40.0431 63.9191H36.2894L35.7695 65.4398H32.3838L36.4065 54.1406H40.0264L44.0491 65.4398H40.5797L40.0431 63.9191ZM39.356 61.3014L38.1657 57.2349L36.9921 61.3014H39.356Z" fill="white"/>
<path d="M45.1543 65.4398V54.1406H50.6685C51.6903 54.1406 54.6577 54.6009 54.6911 57.96C54.7079 58.5967 54.641 61.1425 52.6798 61.6028C53.0826 61.744 55.5456 65.4221 55.5456 65.4221H51.6066C51.6066 65.4221 49.6455 62.1513 49.4614 62.1513H48.4563V65.4398H45.1543ZM48.4898 59.41H49.7303C49.8809 59.41 50.1833 59.3571 50.6183 59.2512C50.8358 59.1982 51.021 59.0923 51.1549 58.8981C51.2887 58.7039 51.3556 58.4908 51.3556 58.2437C51.3556 57.873 51.2385 57.5893 51.021 57.3951C50.8035 57.2009 50.384 57.095 49.7805 57.095H48.4898V59.41Z" fill="white"/>
<path d="M7.91535 63.9191H4.16156L3.64169 65.4398H0.239258L4.26195 54.1406H7.86516L11.8878 65.4398H8.43522L7.91535 63.9191ZM7.21144 61.3014L6.02113 57.2349L4.84754 61.3014H7.21144Z" fill="white"/>
</svg>
