<svg width="161" height="21" viewBox="0 0 161 21" fill="none" xmlns="http://www.w3.org/2000/svg">
<path d="M31.1531 10.3994C32.4337 7.12525 32.3241 4.58165 30.8221 2.7618C29.3223 0.951016 26.4887 0.0391063 22.3281 0.0391063H8.23544L6.9628 3.32062H16.6651C21.6146 3.32062 23.0485 5.95377 21.3406 10.3138C20.3537 12.8364 19.4806 15.1556 17.4216 16.1894C15.5377 17.1359 13.5904 17.413 10.1252 17.413L5.63802 17.4045L8.98881 8.9145H4.76229L0 21H12.7716C16.3528 21 19.18 20.6458 21.2656 19.9413C23.547 19.1592 25.5938 17.8726 27.4 16.0845C29.0834 14.3786 30.3337 12.4845 31.1531 10.3994ZM119.231 0.018703L119.234 0.0340053H114L93.8965 20.117L101.754 0.0385394H93.1373L82.7263 8.74504L77.3676 13.4446H77.1239L79.6458 6.5993L76.5722 0.0385394H67.9133L60.0449 20.1544L55.5088 0.0385394H46.0209L25.0676 21H30.3034L35.6594 15.5206H48.8604L49.9122 21H63.9411L69.0119 8.04566C69.2668 7.39616 69.511 6.64804 69.7499 5.81151C69.7733 6.48595 69.9457 7.20516 70.258 7.96235L74.7181 18.7681H75.4714L88.2324 8.00089C88.7118 7.59623 89.4348 6.86681 90.4026 5.81151C89.9073 6.78747 89.563 7.53105 89.3614 8.04566L84.2905 21H93.5517L93.5539 20.9938H103.318L108.614 15.4877H122.326L123.426 20.9938H128.246L123.549 0.018703H119.231ZM38.4223 12.6421L46.7775 4.10955L48.2853 12.6421H38.4223ZM111.386 12.6103L119.965 3.69525L121.747 12.6103H111.386ZM161 0H146.781C142.616 0 139.068 0.913043 136.15 2.72893C133.229 4.54595 131.125 7.09748 129.84 10.3722C129.022 12.455 128.791 14.3593 129.141 16.0556C129.556 17.8534 130.589 19.1422 132.264 19.9232C133.787 20.6248 136.347 20.9813 139.929 20.9813H152.674L153.947 17.6539H146.766C143.306 17.6539 141 17.1761 139.851 16.2262C138.597 15.1976 138.738 12.8166 139.716 10.2877C141.431 5.9192 145.011 3.19934 149.96 3.19934H155.526L154.251 6.48482H158.474L161 0Z" fill="white"/>
</svg>
