<svg width="250" height="90" viewBox="0 0 250 90" fill="none" xmlns="http://www.w3.org/2000/svg">
<rect width="250" height="90" fill="#D9D9D9"/>
<path d="M71.5227 60V30.9091H75.0455V56.875H88.5682V60H71.5227ZM117.435 45.4545C117.435 48.5227 116.881 51.1742 115.773 53.4091C114.665 55.6439 113.146 57.3674 111.214 58.5795C109.282 59.7917 107.076 60.3977 104.594 60.3977C102.113 60.3977 99.907 59.7917 97.9751 58.5795C96.0433 57.3674 94.5234 55.6439 93.4155 53.4091C92.3075 51.1742 91.7536 48.5227 91.7536 45.4545C91.7536 42.3864 92.3075 39.7348 93.4155 37.5C94.5234 35.2652 96.0433 33.5417 97.9751 32.3295C99.907 31.1174 102.113 30.5114 104.594 30.5114C107.076 30.5114 109.282 31.1174 111.214 32.3295C113.146 33.5417 114.665 35.2652 115.773 37.5C116.881 39.7348 117.435 42.3864 117.435 45.4545ZM114.026 45.4545C114.026 42.9356 113.605 40.8097 112.762 39.0767C111.929 37.3438 110.797 36.0322 109.367 35.142C107.947 34.2519 106.356 33.8068 104.594 33.8068C102.833 33.8068 101.237 34.2519 99.8075 35.142C98.3871 36.0322 97.2554 37.3438 96.4126 39.0767C95.5793 40.8097 95.1626 42.9356 95.1626 45.4545C95.1626 47.9735 95.5793 50.0994 96.4126 51.8324C97.2554 53.5653 98.3871 54.8769 99.8075 55.767C101.237 56.6572 102.833 57.1023 104.594 57.1023C106.356 57.1023 107.947 56.6572 109.367 55.767C110.797 54.8769 111.929 53.5653 112.762 51.8324C113.605 50.0994 114.026 47.9735 114.026 45.4545ZM143.245 40C142.933 39.0436 142.521 38.1866 142.009 37.429C141.507 36.6619 140.906 36.0085 140.205 35.4688C139.514 34.929 138.728 34.517 137.847 34.233C136.967 33.9489 136.001 33.8068 134.95 33.8068C133.226 33.8068 131.659 34.2519 130.248 35.142C128.837 36.0322 127.715 37.3438 126.881 39.0767C126.048 40.8097 125.631 42.9356 125.631 45.4545C125.631 47.9735 126.053 50.0994 126.896 51.8324C127.738 53.5653 128.879 54.8769 130.319 55.767C131.758 56.6572 133.378 57.1023 135.177 57.1023C136.844 57.1023 138.311 56.7472 139.58 56.0369C140.859 55.3172 141.853 54.304 142.563 52.9972C143.283 51.6809 143.643 50.1326 143.643 48.3523L144.722 48.5795H135.972V45.4545H147.052V48.5795C147.052 50.9754 146.54 53.0587 145.518 54.8295C144.504 56.6004 143.103 57.9735 141.313 58.9489C139.533 59.9148 137.487 60.3977 135.177 60.3977C132.601 60.3977 130.338 59.7917 128.387 58.5795C126.446 57.3674 124.931 55.6439 123.842 53.4091C122.762 51.1742 122.222 48.5227 122.222 45.4545C122.222 43.1534 122.53 41.0843 123.146 39.2472C123.771 37.4006 124.651 35.8286 125.788 34.5312C126.924 33.2339 128.269 32.2396 129.822 31.5483C131.375 30.857 133.084 30.5114 134.95 30.5114C136.484 30.5114 137.914 30.7434 139.239 31.2074C140.575 31.6619 141.763 32.3106 142.805 33.1534C143.856 33.9867 144.732 34.9858 145.433 36.1506C146.133 37.3059 146.616 38.589 146.881 40H143.245ZM177.631 45.4545C177.631 48.5227 177.077 51.1742 175.969 53.4091C174.861 55.6439 173.341 57.3674 171.409 58.5795C169.477 59.7917 167.271 60.3977 164.79 60.3977C162.309 60.3977 160.102 59.7917 158.17 58.5795C156.239 57.3674 154.719 55.6439 153.611 53.4091C152.503 51.1742 151.949 48.5227 151.949 45.4545C151.949 42.3864 152.503 39.7348 153.611 37.5C154.719 35.2652 156.239 33.5417 158.17 32.3295C160.102 31.1174 162.309 30.5114 164.79 30.5114C167.271 30.5114 169.477 31.1174 171.409 32.3295C173.341 33.5417 174.861 35.2652 175.969 37.5C177.077 39.7348 177.631 42.3864 177.631 45.4545ZM174.222 45.4545C174.222 42.9356 173.8 40.8097 172.957 39.0767C172.124 37.3438 170.992 36.0322 169.562 35.142C168.142 34.2519 166.551 33.8068 164.79 33.8068C163.028 33.8068 161.433 34.2519 160.003 35.142C158.582 36.0322 157.451 37.3438 156.608 39.0767C155.775 40.8097 155.358 42.9356 155.358 45.4545C155.358 47.9735 155.775 50.0994 156.608 51.8324C157.451 53.5653 158.582 54.8769 160.003 55.767C161.433 56.6572 163.028 57.1023 164.79 57.1023C166.551 57.1023 168.142 56.6572 169.562 55.767C170.992 54.8769 172.124 53.5653 172.957 51.8324C173.8 50.0994 174.222 47.9735 174.222 45.4545Z" fill="#4B4B4B"/>
</svg>
