<svg width="48" height="46" viewBox="0 0 48 46" fill="none" xmlns="http://www.w3.org/2000/svg">
<path d="M31.5021 30.4016C33.2021 28.5016 34.3021 26.1016 34.6021 23.5016L32.6021 24.4016C32.2021 26.2016 31.4021 27.8016 30.2021 29.2016C28.6021 30.8016 26.4021 31.6016 24.2021 31.5016H23.7021C21.5021 31.6016 19.3021 30.8016 17.7021 29.3016C14.8021 26.4016 14.9021 21.8016 14.9021 21.8016C14.9021 21.6016 14.8021 21.4016 14.7021 21.2016C13.5021 19.8016 12.9021 18.5016 13.0021 17.4016C13.1021 16.8016 13.4021 16.3016 13.8021 15.9016C15.0021 15.9016 19.3021 15.7016 22.0021 13.3016C25.1021 15.1016 28.5021 16.0016 32.1021 16.0016C32.7021 16.0016 33.3021 16.0016 34.0021 15.9016C34.4021 16.3016 34.7021 16.8016 34.8021 17.4016C35.0021 18.5016 34.4021 19.8016 33.1021 21.2016C33.0021 21.4016 32.9021 21.6016 32.9021 21.8016C32.9021 21.8016 32.9021 22.0016 32.9021 22.3016C32.9021 22.3016 35.1021 21.8016 35.3021 21.6016C35.2021 21.6016 35.2021 21.7016 35.1021 21.7016C36.2021 20.5016 36.7021 18.8016 36.6021 17.2016C36.4021 16.2016 35.9021 15.3016 35.1021 14.7016C34.7021 5.60156 28.3021 4.60156 25.6021 4.60156C25.0021 4.60156 24.4021 4.60156 23.9021 4.70156C23.3021 4.60156 22.7021 4.60156 22.2021 4.60156C19.5021 4.60156 13.1021 5.60156 12.7021 14.7016C11.9021 15.3016 11.4021 16.2016 11.2021 17.2016C11.0021 18.9016 11.6021 20.5016 12.7021 21.7016C12.7021 21.7016 13.3021 23.2016 13.3021 23.6016V23.7016C13.6021 26.3016 14.7021 28.7016 16.5021 30.6016C16.7021 30.8016 16.9021 31.0016 17.2021 31.2016V32.0016C13.7021 32.6016 -0.197864 35.8016 0.00213648 45.1016C0.00213648 45.6016 0.402136 46.0016 0.902136 46.0016H47.1021C47.6021 46.0016 48.0021 45.6016 48.0021 45.1016C48.2021 35.8016 34.3021 32.6016 30.9021 31.9016V31.1016C31.1021 30.9016 31.3021 30.7016 31.5021 30.4016ZM22.3021 6.10156C22.8021 6.10156 23.3021 6.10156 23.9021 6.20156C24.0021 6.20156 24.1021 6.20156 24.3021 6.20156C24.8021 6.10156 25.3021 6.10156 25.9021 6.10156C29.1021 6.10156 33.0021 7.50156 33.5021 14.0016C29.7021 14.2016 25.9021 13.3016 22.6021 11.3016C22.2021 11.0016 21.7021 11.1016 21.4021 11.4016C19.6021 13.4016 16.3021 13.8016 14.7021 13.9016C15.1021 7.50156 19.0021 6.10156 22.3021 6.10156ZM23.1021 44.1016H1.80214C2.50214 37.3016 13.6021 34.4016 17.1021 33.7016V35.3016C17.1021 37.4016 19.6021 38.9016 23.1021 39.2016V44.1016ZM18.9021 35.3016V32.2016C20.4021 32.9016 22.1021 33.2016 23.7021 33.2016H24.2021C25.9021 33.2016 27.5021 32.9016 29.0021 32.2016V35.3016C29.0021 36.2016 27.0021 37.4016 23.9021 37.4016C20.9021 37.4016 18.9021 36.2016 18.9021 35.3016ZM46.1021 44.2016H24.9021V39.3016C28.4021 39.1016 30.9021 37.5016 30.9021 35.4016V33.8016C34.4021 34.5016 45.4021 37.3016 46.1021 44.2016Z" fill="white"/>
<path d="M12.8021 21.5C12.0021 21.2 11.4021 20.7 10.9021 20.1C10.0021 18.8 9.9021 16.8 10.7021 14.1L11.4021 13.7C11.7021 13.5 11.8021 13.2 11.8021 12.9C11.6021 10.2 12.5021 7.5 14.3021 5.4C16.3021 3 19.6021 1.8 24.0021 1.8C28.4021 1.8 31.7021 3 33.8021 5.3C35.5021 7.4 36.4021 10.1 36.3021 12.8C36.3021 13.1 36.4021 13.5 36.7021 13.6L37.4021 14C38.2021 16.6 38.2021 18.7 37.2021 20C36.8021 20.6 36.1021 21.1 35.5021 21.3C35.3021 21.5 33.1021 22 33.1021 22L27.7021 25C26.7021 24 25.0021 24.1 24.0021 25.1C23.0021 26.1 23.1021 27.8 24.1021 28.8C25.1021 29.8 26.8021 29.7 27.8021 28.7C28.3021 28.2 28.5021 27.6 28.5021 26.9C28.5021 26.8 28.5021 26.7 28.5021 26.7L32.7021 24.5L34.7021 23.6C36.3021 23.4 37.7021 22.5 38.6021 21.3C39.9021 19.4 40.0021 16.8 38.9021 13.4C38.8021 13.2 38.7021 13 38.5021 12.9L38.0021 12.6C38.1021 9.6 37.0021 6.6 35.1021 4.3C32.8021 1.4 29.0021 0 24.0021 0C19.0021 0 15.3021 1.4 12.8021 4.1C10.8021 6.4 9.8021 9.4 9.9021 12.4L9.4021 12.7C9.2021 12.8 9.1021 13 9.0021 13.2C7.9021 16.6 8.0021 19.2 9.3021 21.1C10.3021 22.4 11.7021 23.2 13.2021 23.5V23.4C13.3021 22.9 12.8021 21.5 12.8021 21.5ZM25.9021 27.7C25.5021 27.7 25.1021 27.3 25.1021 26.9C25.1021 26.5 25.5021 26.1 25.9021 26.1C26.3021 26.1 26.7021 26.5 26.7021 26.9C26.8021 27.3 26.4021 27.7 25.9021 27.7Z" fill="#CE8745"/>
</svg>
