<svg width="41" height="42" viewBox="0 0 41 42" fill="none" xmlns="http://www.w3.org/2000/svg">
<path d="M0.8 40.6008C0.6 40.6008 0.3 40.5008 0.2 40.3008C2.83122e-07 40.1008 0 39.9008 0 39.6008L2.5 26.0008C3.2 22.2008 6.5 19.6008 10.9 19.3008C11.2 19.3008 11.4 19.3008 11.7 19.3008C13.5 19.3008 15.3 19.7008 16.8 20.5008C18.7 21.5008 20.1 23.0008 20.7 25.0008C20.8 25.2008 20.8 25.4008 20.9 25.6008C21 25.8008 20.9 26.0008 20.8 26.2008C20.7 26.4008 20.5 26.5008 20.3 26.6008C20.2 26.6008 20.2 26.6008 20.1 26.6008C19.7 26.6008 19.4 26.3008 19.3 26.0008C19.3 25.8008 19.2 25.7008 19.2 25.5008C18.1 22.2008 14.5 21.0008 11.8 21.0008C11.6 21.0008 11.3 21.0008 11.1 21.0008C8.3 21.2008 4.8 22.7008 4.2 26.4008L1.8 39.0008H10.7C11.2 39.0008 11.5 39.4008 11.5 39.8008C11.5 40.3008 11.1 40.6008 10.7 40.6008H0.8Z" fill="white"/>
<path d="M25.6 34.9H24.3L24.2 34.7C24.1 34.4 24 34.2 23.9 33.9L23.8 33.7L24.7 32.7C25 32.4 25 31.9 24.7 31.5C24.5 31.3 24.3 31.3 24.1 31.3C23.9 31.3 23.7 31.4 23.5 31.5L22.6 32.4H22.5C22.2 32.3 22 32.2 21.7 32.1H21.5V30.8C21.5 30.3 21.1 30 20.7 30C20.3 30 19.9 30.4 19.9 30.8V32.1H19.7C19.4 32.2 19.2 32.3 18.9 32.4L18.7 32.5L17.8 31.6C17.6 31.4 17.4 31.4 17.2 31.4C17 31.4 16.8 31.5 16.6 31.6C16.4 31.7 16.4 32 16.4 32.2C16.4 32.4 16.5 32.6 16.6 32.8L17.5 33.8L17.4 34C17.3 34.3 17.1 34.5 17.1 34.8V35H15.8C15.3 35 15 35.4 15 35.8C15 36.3 15.4 36.6 15.8 36.6H17.1L17.2 36.9C17.3 37.1 17.4 37.3 17.5 37.5L17.6 37.7L16.7 38.6C16.5 38.8 16.5 39 16.5 39.2C16.5 39.4 16.6 39.6 16.7 39.8C16.9 40 17.1 40 17.3 40C17.5 40 17.7 39.9 17.9 39.8L18.9 38.9L19.1 39C19.4 39.2 19.6 39.3 19.9 39.3H20.1V40.6C20.1 41.1 20.5 41.4 20.9 41.4C21.3 41.4 21.7 41 21.7 40.6V39.3H21.9C22.2 39.2 22.4 39.1 22.7 39L22.9 38.9L23.8 39.8C24 40 24.2 40 24.4 40C24.6 40 24.8 39.9 25 39.8C25.2 39.6 25.2 39.4 25.2 39.2C25.2 39 25.1 38.8 25 38.6L24.1 37.7L24.2 37.5C24.3 37.3 24.4 37.1 24.5 36.9L24.6 36.6H25.9C26.4 36.6 26.7 36.2 26.7 35.8C26.4 35.2 26 34.9 25.6 34.9ZM20.7 37.7C19.6 37.7 18.7 36.8 18.7 35.7C18.7 34.6 19.6 33.7 20.7 33.7C21.8 33.7 22.7 34.6 22.7 35.7C22.7 36.8 21.8 37.7 20.7 37.7Z" fill="#CE8745"/>
<path d="M25.0757 30.0757C24.8414 30.3101 24.8414 30.6899 25.0757 30.9243C25.3101 31.1586 25.6899 31.1586 25.9243 30.9243L25.0757 30.0757ZM30 26L30.3905 25.5444L29.9686 25.1829L29.5757 25.5757L30 26ZM33.5 29L33.1095 29.4556L33.5314 29.8171L33.9243 29.4243L33.5 29ZM40 22.5H40.6V21.9H40V22.5ZM25.9243 30.9243L30.4243 26.4243L29.5757 25.5757L25.0757 30.0757L25.9243 30.9243ZM29.6095 26.4556L33.1095 29.4556L33.8905 28.5444L30.3905 25.5444L29.6095 26.4556ZM33.9243 29.4243L40.4243 22.9243L39.5757 22.0757L33.0757 28.5757L33.9243 29.4243ZM40 21.9H34.5V23.1H40V21.9ZM39.4 22.5V28H40.6V22.5H39.4Z" fill="white"/>
<path d="M12.6001 0C12.5001 0 12.1001 0 11.7001 0C11.4001 0 11.2001 0 11.1001 0C8.10011 0.3 4.40011 2.4 4.30011 7C4.20011 10.9 5.50011 13.1 6.70011 14.4C8.10011 15.8 9.9001 16.6 11.8001 16.6C13.7001 16.6 15.5001 15.8 16.9001 14.4C18.1001 13.2 19.5001 10.9 19.3001 7C19.1001 2.4 15.6001 0.4 12.6001 0ZM7.10011 3.8C8.20011 2.5 9.9001 1.7 11.8001 1.6C13.7001 1.7 15.5001 2.5 16.5001 3.8L16.7001 4.1L16.4001 4.2C15.0001 4.7 13.4001 5.1 11.8001 5.1C10.1001 5.1 8.50011 4.7 7.20011 4.2L6.90011 4.1L7.10011 3.8ZM17.7001 7C17.8001 9.6 17.1001 11.7 15.7001 13.2C14.6001 14.3 13.2001 14.9 11.8001 14.9C10.3001 14.9 8.90011 14.3 7.90011 13.2C6.50011 11.8 5.80011 9.6 5.90011 7C5.90011 6.6 6.00011 6.2 6.10011 5.8V5.5L6.40011 5.6C8.00011 6.3 9.80011 6.6 11.8001 6.7C13.7001 6.7 15.6001 6.3 17.2001 5.6L17.4001 5.5L17.5001 5.8C17.6001 6.2 17.7001 6.6 17.7001 7Z" fill="#CE8745"/>
</svg>
