<svg width="1440" height="511" viewBox="0 0 1440 511" fill="none" xmlns="http://www.w3.org/2000/svg">
<mask id="mask0_1354_25" style="mask-type:alpha" maskUnits="userSpaceOnUse" x="0" y="0" width="1440" height="511">
<rect width="1440" height="511" fill="#D9D9D9"/>
</mask>
<g mask="url(#mask0_1354_25)">
<rect x="-49.3721" y="-9.60547" width="1542.86" height="545.579" fill="#D9D9D9"/>
<path d="M661.555 197.508L584 281.85H738.128L661.555 197.508Z" fill="#5A5A5A"/>
<path d="M744.021 151.676L688.063 215.849L748.929 280.939H856.917L744.021 151.676Z" fill="#5A5A5A"/>
<ellipse cx="670.392" cy="122.336" rx="31.4145" ry="29.3363" fill="#5A5A5A"/>
<path d="M566.7 380.2C564.767 379.133 562.933 377.617 561.2 375.65C559.467 373.717 558.05 371.2 556.95 368.1C555.883 365 555.35 361.233 555.35 356.8C555.35 352.267 555.883 348.467 556.95 345.4C558.05 342.3 559.467 339.783 561.2 337.85C562.933 335.917 564.767 334.417 566.7 333.35L570 337.75C567.767 339.283 566.083 341.717 564.95 345.05C563.817 348.35 563.25 352.267 563.25 356.8C563.25 361.3 563.817 365.2 564.95 368.5C566.083 371.8 567.767 374.233 570 375.8L566.7 380.2ZM585.326 374V367.3L593.976 367.35L594.276 347.25H593.976L588.176 353.1L583.226 347.95L594.376 338.45L601.826 338.95V367.4L609.426 367.3V374H585.326ZM625.911 374V367H609.711V362L618.311 338.15L625.761 339.1L617.961 360.55V360.85L625.961 360.55L627.661 348.15H633.611V360.35L636.911 360.25V367H633.611L633.661 374H625.911ZM654.318 374V367H638.118V362L646.718 338.15L654.168 339.1L646.368 360.55V360.85L654.368 360.55L656.068 348.15H662.018V360.35L665.318 360.25V367H662.018L662.068 374H654.318ZM681.524 374.65C679.624 374.65 677.857 374.383 676.224 373.85C674.624 373.317 673.207 372.4 671.974 371.1C670.74 369.767 669.774 367.917 669.074 365.55C668.407 363.15 668.074 360.1 668.074 356.4C668.074 352.7 668.407 349.667 669.074 347.3C669.774 344.933 670.74 343.1 671.974 341.8C673.207 340.467 674.624 339.533 676.224 339C677.857 338.467 679.624 338.2 681.524 338.2C683.424 338.2 685.19 338.467 686.824 339C688.457 339.533 689.874 340.467 691.074 341.8C692.307 343.1 693.257 344.933 693.924 347.3C694.624 349.667 694.974 352.7 694.974 356.4C694.974 360.1 694.624 363.15 693.924 365.55C693.257 367.917 692.307 369.767 691.074 371.1C689.874 372.4 688.457 373.317 686.824 373.85C685.19 374.383 683.424 374.65 681.524 374.65ZM681.574 368.1C682.774 368.1 683.774 367.8 684.574 367.2C685.407 366.567 686.024 365.4 686.424 363.7C686.824 362 687.024 359.567 687.024 356.4C687.024 353.967 686.89 352 686.624 350.5C686.39 348.967 686.04 347.783 685.574 346.95C685.107 346.117 684.524 345.55 683.824 345.25C683.157 344.917 682.39 344.75 681.524 344.75C680.657 344.75 679.874 344.917 679.174 345.25C678.507 345.55 677.94 346.117 677.474 346.95C677.007 347.75 676.657 348.917 676.424 350.45C676.19 351.95 676.074 353.9 676.074 356.3C676.074 359.467 676.274 361.9 676.674 363.6C677.107 365.3 677.724 366.483 678.524 367.15C679.357 367.783 680.374 368.1 681.574 368.1ZM708.831 374L718.381 358.55L709.381 344.6H717.431L722.831 354.3H723.131L728.531 344.6H736.581L727.581 358.55L737.131 374H728.831L723.131 363.1H722.831L717.131 374H708.831ZM762.777 374.65C761.01 374.65 759.343 374.45 757.777 374.05C756.21 373.65 754.81 373.2 753.577 372.7C752.377 372.167 751.427 371.7 750.727 371.3C750.06 370.9 749.727 370.7 749.727 370.7L752.027 365C752.027 365 752.41 365.15 753.177 365.45C753.977 365.717 754.977 366.05 756.177 366.45C757.377 366.817 758.627 367.15 759.927 367.45C761.227 367.717 762.41 367.85 763.477 367.85C764.643 367.85 765.527 367.633 766.127 367.2C766.493 366.933 766.777 366.45 766.977 365.75C767.177 365.017 767.277 364.183 767.277 363.25C767.277 362.383 767.177 361.583 766.977 360.85C766.777 360.117 766.51 359.633 766.177 359.4C765.743 359.033 764.943 358.75 763.777 358.55C762.61 358.317 760.743 358.2 758.177 358.2C757.543 358.2 756.76 358.217 755.827 358.25C754.893 358.25 754.06 358.267 753.327 358.3C752.627 358.3 752.277 358.3 752.277 358.3L755.327 338.85H773.777V345.35L761.827 345.15L760.827 351.8C762.927 351.933 764.843 352.2 766.577 352.6C768.343 353 769.877 353.617 771.177 354.45C772.51 355.25 773.527 356.35 774.227 357.75C774.96 359.117 775.327 360.85 775.327 362.95C775.327 366.65 774.193 369.533 771.927 371.6C769.693 373.633 766.643 374.65 762.777 374.65ZM779.714 374V367.3L788.364 367.35L788.664 347.25H788.364L782.564 353.1L777.614 347.95L788.764 338.45L796.214 338.95V367.4L803.814 367.3V374H779.714ZM806.9 374V367.3L815.55 367.35L815.85 347.25H815.55L809.75 353.1L804.8 347.95L815.95 338.45L823.4 338.95V367.4L831 367.3V374H806.9ZM846.93 380.2L843.63 375.8C845.896 374.233 847.58 371.8 848.68 368.5C849.813 365.2 850.38 361.3 850.38 356.8C850.38 352.267 849.813 348.35 848.68 345.05C847.58 341.717 845.896 339.283 843.63 337.75L846.93 333.35C848.863 334.417 850.696 335.917 852.43 337.85C854.163 339.783 855.563 342.3 856.63 345.4C857.73 348.467 858.28 352.267 858.28 356.8C858.28 361.233 857.73 365 856.63 368.1C855.563 371.2 854.163 373.717 852.43 375.65C850.696 377.617 848.863 379.133 846.93 380.2Z" fill="#5A5A5A"/>
</g>
</svg>
