<svg width="38" height="45" viewBox="0 0 38 45" fill="none" xmlns="http://www.w3.org/2000/svg">
<path d="M3.3999 23.6984C3.0999 23.6984 2.8999 23.4984 2.8999 23.1984V20.3984C2.8999 20.0984 3.0999 19.8984 3.3999 19.8984H16.1999C16.4999 19.8984 16.6999 20.0984 16.6999 20.3984V23.1984C16.6999 23.4984 16.4999 23.6984 16.1999 23.6984H3.3999ZM3.8999 22.6984H15.5999V20.8984H3.8999V22.6984Z" fill="white"/>
<path d="M14.7 29.4C13.6 29.4 12.7 28.5 12.7 27.4C12.7 26.3 13.6 25.4 14.7 25.4C15.8 25.4 16.7 26.3 16.7 27.4C16.7 28.5 15.8 29.4 14.7 29.4ZM14.7 26.6C14.2 26.6 13.8 27 13.8 27.5C13.8 28 14.2 28.4 14.7 28.4C15.2 28.4 15.6 28 15.6 27.5C15.6 27 15.2 26.6 14.7 26.6ZM9.80005 29.4C8.70005 29.4 7.80005 28.5 7.80005 27.4C7.80005 26.3 8.70005 25.4 9.80005 25.4C10.9 25.4 11.8 26.3 11.8 27.4C11.7 28.5 10.9 29.4 9.80005 29.4ZM9.80005 26.6C9.30005 26.6 8.90005 27 8.90005 27.5C8.90005 28 9.30005 28.4 9.80005 28.4C10.3 28.4 10.7 28 10.7 27.5C10.7 27 10.3 26.6 9.80005 26.6ZM4.80005 29.4C3.70005 29.4 2.80005 28.5 2.80005 27.4C2.80005 26.3 3.70005 25.4 4.80005 25.4C5.90005 25.4 6.80005 26.3 6.80005 27.4C6.80005 28.5 5.90005 29.4 4.80005 29.4ZM4.80005 26.6C4.30005 26.6 3.90005 27 3.90005 27.5C3.90005 28 4.30005 28.4 4.80005 28.4C5.30005 28.4 5.70005 28 5.70005 27.5C5.70005 27 5.30005 26.6 4.80005 26.6ZM14.7 34.4C13.6 34.4 12.7 33.5 12.7 32.4C12.7 31.3 13.6 30.4 14.7 30.4C15.8 30.4 16.7 31.3 16.7 32.4C16.7 33.5 15.8 34.4 14.7 34.4ZM14.7 31.5C14.2 31.5 13.8 31.9 13.8 32.4C13.8 32.9 14.2 33.3 14.7 33.3C15.2 33.3 15.6 32.9 15.6 32.4C15.6 31.9 15.2 31.5 14.7 31.5ZM9.80005 34.4C8.70005 34.4 7.80005 33.5 7.80005 32.4C7.80005 31.3 8.70005 30.4 9.80005 30.4C10.9 30.4 11.8 31.3 11.8 32.4C11.7 33.5 10.9 34.4 9.80005 34.4ZM9.80005 31.5C9.30005 31.5 8.90005 31.9 8.90005 32.4C8.90005 32.9 9.30005 33.3 9.80005 33.3C10.3 33.3 10.7 32.9 10.7 32.4C10.7 31.9 10.3 31.5 9.80005 31.5ZM4.80005 34.4C3.70005 34.4 2.80005 33.5 2.80005 32.4C2.80005 31.3 3.70005 30.4 4.80005 30.4C5.90005 30.4 6.80005 31.3 6.80005 32.4C6.80005 33.5 5.90005 34.4 4.80005 34.4ZM4.80005 31.5C4.30005 31.5 3.90005 31.9 3.90005 32.4C3.90005 32.9 4.30005 33.3 4.80005 33.3C5.30005 33.3 5.70005 32.9 5.70005 32.4C5.70005 31.9 5.30005 31.5 4.80005 31.5ZM14.7 39.3C13.6 39.3 12.7 38.4 12.7 37.3C12.7 36.2 13.6 35.3 14.7 35.3C15.8 35.3 16.7 36.2 16.7 37.3C16.7 38.5 15.8 39.3 14.7 39.3ZM14.7 36.5C14.2 36.5 13.8 36.9 13.8 37.4C13.8 37.9 14.2 38.3 14.7 38.3C15.2 38.3 15.6 37.9 15.6 37.4C15.6 36.9 15.2 36.5 14.7 36.5ZM9.80005 39.3C8.70005 39.3 7.80005 38.4 7.80005 37.3C7.80005 36.2 8.70005 35.3 9.80005 35.3C10.9 35.3 11.8 36.2 11.8 37.3C11.7 38.5 10.9 39.3 9.80005 39.3ZM9.80005 36.5C9.30005 36.5 8.90005 36.9 8.90005 37.4C8.90005 37.9 9.30005 38.3 9.80005 38.3C10.3 38.3 10.7 37.9 10.7 37.4C10.7 36.9 10.3 36.5 9.80005 36.5ZM4.80005 39.3C3.70005 39.3 2.80005 38.4 2.80005 37.3C2.80005 36.2 3.70005 35.3 4.80005 35.3C5.90005 35.3 6.80005 36.2 6.80005 37.3C6.80005 38.5 5.90005 39.3 4.80005 39.3ZM4.80005 36.5C4.30005 36.5 3.90005 36.9 3.90005 37.4C3.90005 37.9 4.30005 38.3 4.80005 38.3C5.30005 38.3 5.70005 37.9 5.70005 37.4C5.70005 36.9 5.30005 36.5 4.80005 36.5ZM14.7 13.8C14.4 13.8 14.2 13.6 14.2 13.3V11.2C14.2 10.9 14.4 10.7 14.7 10.7H14.9L15 10.5C15.2 8.8 16.2 7.3 17.7 6.4L17.8 6.3V6V5.9C17.8 5.8 17.8 5.8 17.8 5.8L17.9 5.6C17.9 5.6 17.9 5.6 18 5.5C18.8 5.1 19.6 5 20.4 5C21.2 5 22 5.2 22.7001 5.5H22.8C22.9 5.5 22.9 5.6 22.9 5.6L23 5.7V5.8C23 5.8 23 5.8 23 5.9V6V6.4L23.1 6.5C24.6 7.4 25.6 8.9 25.8 10.6V10.8H26C26.3 10.8 26.6 11 26.6 11.3V13.4C26.6 13.7 26.4 13.9 26.1 13.9H14.7V13.8ZM15.3 12.8H25.6V11.7H15.3V12.8ZM17.5 7.9C16.8 8.6 16.3 9.5 16.1 10.5V10.7H24.9V10.5C24.7 9.5 24.2001 8.6 23.5 7.9L23.2001 7.6V8.3C23.2001 8.6 23 8.8 22.7001 8.8C22.4001 8.8 22 8.6 22 8.3V6.3H21.9C21.4 6.1 20.9 6 20.4 6C19.9 6 19.4 6.1 18.9 6.3H18.8V8.3C18.8 8.6 18.6 8.8 18.3 8.8C18 8.8 17.8 8.6 17.8 8.3V7.6L17.5 7.9ZM32.5 19.5C32.8 19.5 33 19.3 33 19C33 18.7 32.8 18.5 32.5 18.5H30.4001C30.1001 18.5 29.9001 18.7 29.9001 19C29.9001 19.3 30 19.5 30.3 19.5H32.5ZM32.5 23C32.8 23 33 22.8 33 22.5C33 22.2 32.8 22 32.5 22H29.7001C29.4001 22 29.2001 22.2 29.2001 22.5C29.2001 22.8 29.4001 23 29.7001 23H32.5ZM32.5 26.6C32.8 26.6 33 26.4 33 26.1C33 25.8 32.8 25.5 32.5 25.5H30.4001C30.1001 25.5 29.9001 25.7 29.9001 26C29.9001 26.3 30.1001 26.5 30.4001 26.5H32.5V26.6ZM32.5 30.1C32.8 30.1 33 29.9 33 29.6C33 29.3 32.8 29.1 32.5 29.1H31C30.7001 29.1 30.5 29.3 30.5 29.6C30.5 29.9 30.7001 30.1 31 30.1H32.5ZM32.5 33.7C32.8 33.7 33 33.5 33 33.2C33 32.9 32.8 32.7 32.5 32.7H30.4001C30.1001 32.7 29.9001 32.9 29.9001 33.2C29.9001 33.5 30.1001 33.7 30.4001 33.7H32.5ZM32.5 37.2C32.8 37.2 33 37 33 36.7C33 36.4 32.8 36.2 32.5 36.2H29.7001C29.4001 36.2 29.2001 36.4 29.2001 36.7C29.2001 37 29.4001 37.2 29.7001 37.2H32.5Z" fill="#CE8745"/>
<path d="M2 45C0.9 45 0 44.1 0 43V19C0 17.9 0.9 17 2 17H9.3V0.5C9.3 0.2 9.5 0 9.8 0H32.5C32.6 0 32.6 0 32.7 0C32.8 0 32.8 0.0999999 32.9 0.0999999L37.9 5.1C37.9 5.1 38 5.2 38 5.3C38 5.4 38 5.4 38 5.5V41.6C38 41.9 37.8 42.1 37.5 42.1H19.5V43C19.5 44.1 18.6 45 17.5 45H2ZM1.1 43C1.1 43.5 1.5 43.9 2 43.9H17.6C18.1 43.9 18.5 43.5 18.5 43V41.9L18.3 42C18.1 42.1 17.9 42.1 17.7 42.1H2C1.8 42.1 1.6 42.1 1.4 42L1.2 41.9V43H1.1ZM2 18.1C1.5 18.1 1.1 18.5 1.1 19V40.3C1.1 40.8 1.5 41.2 2 41.2H17.6C18.1 41.2 18.5 40.8 18.5 40.3V19C18.5 18.5 18.1 18.1 17.6 18.1H2ZM19.5 41.1H36.9V6H32.5C32.2 6 32 5.8 32 5.5V1.1H10.3V17H17.6C18.4 17 19.2 17.5 19.4 18.3V18.4H26C26.3 18.4 26.5 18.6 26.5 18.9C26.5 19.2 26.4 19.5 26.1 19.5H19.6V22H19.8H26.2C26.5 22 26.7 22.2 26.7 22.5C26.7 22.8 26.5 23 26.2 23H19.7V25.5H26.2C26.5 25.5 26.7 25.7 26.7 26C26.7 26.3 26.5 26.5 26.2 26.5H19.7V29H26.2C26.5 29 26.7 29.2 26.7 29.5C26.7 29.8 26.5 30 26.2 30H19.7V32.5H26.2C26.5 32.5 26.7 32.7 26.7 33C26.7 33.3 26.5 33.5 26.2 33.5H19.7V36H26.2C26.5 36 26.7 36.2 26.7 36.5C26.7 36.8 26.5 37 26.2 37H19.7V41.1H19.5ZM33 5H36.1L33 1.8V5Z" fill="white"/>
</svg>
