<svg width="380" height="266" viewBox="0 0 380 266" fill="none" xmlns="http://www.w3.org/2000/svg">
<mask id="mask0_1350_7" style="mask-type:alpha" maskUnits="userSpaceOnUse" x="0" y="0" width="380" height="266">
<rect width="380" height="266" fill="#D9D9D9"/>
</mask>
<g mask="url(#mask0_1350_7)">
<rect x="-13" y="-5" width="407" height="284" fill="#D9D9D9"/>
<path d="M149.764 112L108 160H191L149.764 112Z" fill="#5A5A5A"/>
<path d="M193.826 86L164 122.738L196.442 160H254L193.826 86Z" fill="#5A5A5A"/>
<circle cx="154" cy="69" r="17" fill="#5A5A5A"/>
<path d="M126.124 210.224C125.119 209.669 124.165 208.881 123.264 207.858C122.363 206.853 121.626 205.544 121.054 203.932C120.499 202.32 120.222 200.361 120.222 198.056C120.222 195.699 120.499 193.723 121.054 192.128C121.626 190.516 122.363 189.207 123.264 188.202C124.165 187.197 125.119 186.417 126.124 185.862L127.84 188.15C126.679 188.947 125.803 190.213 125.214 191.946C124.625 193.662 124.33 195.699 124.33 198.056C124.33 200.396 124.625 202.424 125.214 204.14C125.803 205.856 126.679 207.121 127.84 207.936L126.124 210.224ZM141.971 207.338C141.122 207.338 140.316 207.251 139.553 207.078C138.808 206.922 138.132 206.731 137.525 206.506C136.919 206.281 136.416 206.073 136.017 205.882C135.619 205.691 135.35 205.561 135.211 205.492L136.433 202.58C136.641 202.632 136.962 202.727 137.395 202.866C137.846 203.005 138.357 203.143 138.929 203.282C139.501 203.421 140.082 203.542 140.671 203.646C141.261 203.75 141.815 203.802 142.335 203.802C143.098 203.802 143.609 203.646 143.869 203.334C144.147 203.005 144.285 202.502 144.285 201.826C144.285 200.803 144.06 200.093 143.609 199.694C143.176 199.295 142.491 199.096 141.555 199.096H138.123V195.716C139.215 195.629 140.125 195.551 140.853 195.482C141.599 195.413 142.188 195.317 142.621 195.196C143.055 195.075 143.358 194.884 143.531 194.624C143.722 194.364 143.817 194.017 143.817 193.584C143.817 193.22 143.783 192.934 143.713 192.726C143.661 192.518 143.583 192.371 143.479 192.284C143.323 192.145 143.037 192.05 142.621 191.998C142.223 191.929 141.72 191.894 141.113 191.894C140.801 191.894 140.463 191.911 140.099 191.946C139.753 191.963 139.311 191.998 138.773 192.05C138.236 192.102 137.525 192.18 136.641 192.284L136.173 189.034C136.659 188.895 137.205 188.783 137.811 188.696C138.435 188.592 139.051 188.514 139.657 188.462C140.281 188.41 140.827 188.384 141.295 188.384C142.561 188.384 143.696 188.54 144.701 188.852C145.707 189.147 146.495 189.649 147.067 190.36C147.657 191.071 147.951 192.059 147.951 193.324C147.951 193.844 147.891 194.303 147.769 194.702C147.665 195.101 147.518 195.456 147.327 195.768C147.154 196.063 146.946 196.314 146.703 196.522C146.478 196.73 146.244 196.912 146.001 197.068V197.224C146.331 197.38 146.643 197.579 146.937 197.822C147.249 198.047 147.518 198.333 147.743 198.68C147.986 199.027 148.177 199.443 148.315 199.928C148.454 200.396 148.523 200.951 148.523 201.592C148.523 202.632 148.307 203.585 147.873 204.452C147.457 205.319 146.773 206.021 145.819 206.558C144.866 207.078 143.583 207.338 141.971 207.338ZM157.318 207.338C155.827 207.338 154.579 207.069 153.574 206.532C152.569 205.977 151.806 205.267 151.286 204.4C150.783 203.533 150.532 202.632 150.532 201.696C150.532 201.037 150.653 200.431 150.896 199.876C151.156 199.321 151.485 198.827 151.884 198.394C152.283 197.961 152.716 197.597 153.184 197.302C152.595 196.851 152.127 196.297 151.78 195.638C151.451 194.962 151.286 194.182 151.286 193.298C151.286 191.859 151.806 190.681 152.846 189.762C153.886 188.843 155.403 188.384 157.396 188.384C158.783 188.384 159.927 188.609 160.828 189.06C161.747 189.493 162.431 190.083 162.882 190.828C163.333 191.573 163.558 192.405 163.558 193.324C163.558 194.295 163.333 195.127 162.882 195.82C162.449 196.513 161.903 197.085 161.244 197.536C161.712 197.744 162.18 198.047 162.648 198.446C163.116 198.845 163.506 199.33 163.818 199.902C164.147 200.474 164.312 201.141 164.312 201.904C164.312 202.84 164.035 203.724 163.48 204.556C162.943 205.388 162.154 206.064 161.114 206.584C160.074 207.087 158.809 207.338 157.318 207.338ZM157.396 203.906C158.367 203.906 159.077 203.733 159.528 203.386C159.979 203.022 160.204 202.537 160.204 201.93C160.204 201.479 160.091 201.098 159.866 200.786C159.658 200.457 159.303 200.153 158.8 199.876C158.297 199.599 157.595 199.33 156.694 199.07C156.07 199.295 155.567 199.599 155.186 199.98C154.822 200.361 154.64 200.933 154.64 201.696C154.64 202.112 154.727 202.485 154.9 202.814C155.073 203.143 155.359 203.412 155.758 203.62C156.174 203.811 156.72 203.906 157.396 203.906ZM157.76 196.002C158.297 195.777 158.731 195.473 159.06 195.092C159.389 194.711 159.554 194.208 159.554 193.584C159.554 192.977 159.389 192.492 159.06 192.128C158.731 191.764 158.185 191.582 157.422 191.582C156.59 191.582 156.018 191.747 155.706 192.076C155.411 192.405 155.264 192.821 155.264 193.324C155.264 193.913 155.455 194.425 155.836 194.858C156.217 195.274 156.859 195.655 157.76 196.002ZM172.712 207.338C171.724 207.338 170.805 207.199 169.956 206.922C169.124 206.645 168.387 206.168 167.746 205.492C167.104 204.799 166.602 203.837 166.238 202.606C165.891 201.358 165.718 199.772 165.718 197.848C165.718 195.924 165.891 194.347 166.238 193.116C166.602 191.885 167.104 190.932 167.746 190.256C168.387 189.563 169.124 189.077 169.956 188.8C170.805 188.523 171.724 188.384 172.712 188.384C173.7 188.384 174.618 188.523 175.468 188.8C176.317 189.077 177.054 189.563 177.678 190.256C178.319 190.932 178.813 191.885 179.16 193.116C179.524 194.347 179.706 195.924 179.706 197.848C179.706 199.772 179.524 201.358 179.16 202.606C178.813 203.837 178.319 204.799 177.678 205.492C177.054 206.168 176.317 206.645 175.468 206.922C174.618 207.199 173.7 207.338 172.712 207.338ZM172.738 203.932C173.362 203.932 173.882 203.776 174.298 203.464C174.731 203.135 175.052 202.528 175.26 201.644C175.468 200.76 175.572 199.495 175.572 197.848C175.572 196.583 175.502 195.56 175.364 194.78C175.242 193.983 175.06 193.367 174.818 192.934C174.575 192.501 174.272 192.206 173.908 192.05C173.561 191.877 173.162 191.79 172.712 191.79C172.261 191.79 171.854 191.877 171.49 192.05C171.143 192.206 170.848 192.501 170.606 192.934C170.363 193.35 170.181 193.957 170.06 194.754C169.938 195.534 169.878 196.548 169.878 197.796C169.878 199.443 169.982 200.708 170.19 201.592C170.415 202.476 170.736 203.091 171.152 203.438C171.585 203.767 172.114 203.932 172.738 203.932ZM186.911 207L191.877 198.966L187.197 191.712H191.383L194.191 196.756H194.347L197.155 191.712H201.341L196.661 198.966L201.627 207H197.311L194.347 201.332H194.191L191.227 207H186.911ZM209.087 207V204.062C209.087 204.062 209.538 203.611 210.439 202.71C211.34 201.791 212.562 200.465 214.105 198.732C215.18 197.553 216.046 196.505 216.705 195.586C217.381 194.65 217.719 193.827 217.719 193.116C217.719 192.769 217.598 192.492 217.355 192.284C217.13 192.076 216.731 191.972 216.159 191.972C215.674 191.972 215.102 192.067 214.443 192.258C213.784 192.449 213.1 192.7 212.389 193.012C211.696 193.307 211.037 193.645 210.413 194.026L208.801 191.01C209.165 190.715 209.702 190.369 210.413 189.97C211.124 189.554 211.938 189.19 212.857 188.878C213.776 188.549 214.72 188.384 215.691 188.384C216.87 188.384 217.918 188.575 218.837 188.956C219.756 189.337 220.475 189.892 220.995 190.62C221.532 191.348 221.801 192.223 221.801 193.246C221.801 193.991 221.628 194.737 221.281 195.482C220.934 196.227 220.501 196.955 219.981 197.666C219.461 198.377 218.924 199.061 218.369 199.72C217.936 200.24 217.537 200.708 217.173 201.124C216.809 201.54 216.488 201.895 216.211 202.19C215.934 202.485 215.7 202.736 215.509 202.944C215.318 203.135 215.171 203.282 215.067 203.386C214.98 203.473 214.937 203.516 214.937 203.516V203.672L222.191 203.516V207H209.087ZM230.873 207.338C229.452 207.338 228.221 207.052 227.181 206.48C226.159 205.891 225.37 204.937 224.815 203.62C224.278 202.303 224.009 200.526 224.009 198.29C224.009 196.297 224.217 194.659 224.633 193.376C225.049 192.076 225.613 191.071 226.323 190.36C227.051 189.632 227.892 189.121 228.845 188.826C229.799 188.531 230.804 188.384 231.861 188.384C232.693 188.384 233.473 188.462 234.201 188.618C234.929 188.757 235.519 188.904 235.969 189.06C236.42 189.216 236.645 189.294 236.645 189.294L235.761 192.466C235.761 192.466 235.614 192.44 235.319 192.388C235.025 192.319 234.652 192.249 234.201 192.18C233.751 192.093 233.274 192.024 232.771 191.972C232.286 191.903 231.835 191.868 231.419 191.868C230.934 191.868 230.527 191.911 230.197 191.998C229.868 192.067 229.599 192.197 229.391 192.388C229.114 192.613 228.88 192.969 228.689 193.454C228.516 193.939 228.386 194.607 228.299 195.456C228.299 195.456 228.412 195.447 228.637 195.43C228.863 195.413 229.123 195.404 229.417 195.404C229.712 195.387 229.972 195.378 230.197 195.378C231.688 195.378 232.971 195.56 234.045 195.924C235.12 196.288 235.952 196.895 236.541 197.744C237.131 198.576 237.425 199.703 237.425 201.124C237.425 203.117 236.836 204.651 235.657 205.726C234.496 206.801 232.901 207.338 230.873 207.338ZM231.029 203.932C231.948 203.932 232.572 203.733 232.901 203.334C233.248 202.918 233.421 202.216 233.421 201.228C233.421 200.604 233.343 200.119 233.187 199.772C233.049 199.408 232.789 199.157 232.407 199.018C232.026 198.862 231.471 198.784 230.743 198.784C230.414 198.784 230.05 198.801 229.651 198.836C229.253 198.853 228.906 198.879 228.611 198.914C228.334 198.949 228.195 198.966 228.195 198.966V200.266C228.195 201.029 228.239 201.635 228.325 202.086C228.429 202.519 228.551 202.84 228.689 203.048C228.828 203.256 228.941 203.395 229.027 203.464C229.166 203.585 229.383 203.698 229.677 203.802C229.989 203.889 230.44 203.932 231.029 203.932ZM246 207.338C244.579 207.338 243.348 207.052 242.308 206.48C241.285 205.891 240.497 204.937 239.942 203.62C239.405 202.303 239.136 200.526 239.136 198.29C239.136 196.297 239.344 194.659 239.76 193.376C240.176 192.076 240.739 191.071 241.45 190.36C242.178 189.632 243.019 189.121 243.972 188.826C244.925 188.531 245.931 188.384 246.988 188.384C247.82 188.384 248.6 188.462 249.328 188.618C250.056 188.757 250.645 188.904 251.096 189.06C251.547 189.216 251.772 189.294 251.772 189.294L250.888 192.466C250.888 192.466 250.741 192.44 250.446 192.388C250.151 192.319 249.779 192.249 249.328 192.18C248.877 192.093 248.401 192.024 247.898 191.972C247.413 191.903 246.962 191.868 246.546 191.868C246.061 191.868 245.653 191.911 245.324 191.998C244.995 192.067 244.726 192.197 244.518 192.388C244.241 192.613 244.007 192.969 243.816 193.454C243.643 193.939 243.513 194.607 243.426 195.456C243.426 195.456 243.539 195.447 243.764 195.43C243.989 195.413 244.249 195.404 244.544 195.404C244.839 195.387 245.099 195.378 245.324 195.378C246.815 195.378 248.097 195.56 249.172 195.924C250.247 196.288 251.079 196.895 251.668 197.744C252.257 198.576 252.552 199.703 252.552 201.124C252.552 203.117 251.963 204.651 250.784 205.726C249.623 206.801 248.028 207.338 246 207.338ZM246.156 203.932C247.075 203.932 247.699 203.733 248.028 203.334C248.375 202.918 248.548 202.216 248.548 201.228C248.548 200.604 248.47 200.119 248.314 199.772C248.175 199.408 247.915 199.157 247.534 199.018C247.153 198.862 246.598 198.784 245.87 198.784C245.541 198.784 245.177 198.801 244.778 198.836C244.379 198.853 244.033 198.879 243.738 198.914C243.461 198.949 243.322 198.966 243.322 198.966V200.266C243.322 201.029 243.365 201.635 243.452 202.086C243.556 202.519 243.677 202.84 243.816 203.048C243.955 203.256 244.067 203.395 244.154 203.464C244.293 203.585 244.509 203.698 244.804 203.802C245.116 203.889 245.567 203.932 246.156 203.932ZM261.592 210.224L259.876 207.936C261.054 207.121 261.93 205.856 262.502 204.14C263.091 202.424 263.386 200.396 263.386 198.056C263.386 195.699 263.091 193.662 262.502 191.946C261.93 190.213 261.054 188.947 259.876 188.15L261.592 185.862C262.597 186.417 263.55 187.197 264.452 188.202C265.353 189.207 266.081 190.516 266.636 192.128C267.208 193.723 267.494 195.699 267.494 198.056C267.494 200.361 267.208 202.32 266.636 203.932C266.081 205.544 265.353 206.853 264.452 207.858C263.55 208.881 262.597 209.669 261.592 210.224Z" fill="#5A5A5A"/>
</g>
</svg>
