<svg width="31" height="31" viewBox="0 0 31 31" fill="none" xmlns="http://www.w3.org/2000/svg">
<path d="M11.8848 8.25992C12.7385 8.25992 13.4347 7.56369 13.4347 6.71004C13.4347 5.85639 12.7385 5.16016 11.8848 5.16016C11.0312 5.16016 10.335 5.85639 10.335 6.71004C10.335 7.56369 11.0251 8.25992 11.8848 8.25992ZM11.8848 6.19543C12.1694 6.19543 12.3995 6.42549 12.3995 6.71004C12.3995 6.99459 12.1694 7.22465 11.8848 7.22465C11.6003 7.22465 11.3702 6.99459 11.3702 6.71004C11.3642 6.42549 11.6003 6.19543 11.8848 6.19543Z" fill="white"/>
<path d="M19.1134 8.25992C19.967 8.25992 20.6632 7.56369 20.6632 6.71004C20.6632 5.85639 19.967 5.16016 19.1134 5.16016C18.2597 5.16016 17.5635 5.85639 17.5635 6.71004C17.5635 7.56369 18.2597 8.25992 19.1134 8.25992ZM19.1134 6.19543C19.3979 6.19543 19.628 6.42549 19.628 6.71004C19.628 6.99459 19.3979 7.22465 19.1134 7.22465C18.8288 7.22465 18.5988 6.99459 18.5988 6.71004C18.5988 6.42549 18.8288 6.19543 19.1134 6.19543Z" fill="white"/>
<path d="M27.8979 20.1461C27.7647 20.1461 27.6315 20.1522 27.4983 20.1704C26.463 17.785 24.5499 15.89 22.1524 14.879C22.0677 14.328 21.8195 13.8195 21.4441 13.4078C22.6004 12.1425 23.2422 10.4957 23.2482 8.78236C23.2482 8.5644 23.2361 8.34645 23.2119 8.13455C25.0464 7.68049 26.342 6.03374 26.348 4.14482C26.3541 2.2559 25.0766 0.597036 23.2482 0.13086C21.4138 -0.34137 19.5007 0.494114 18.5925 2.15903C16.6068 1.35381 14.3849 1.35381 12.4051 2.15903C11.503 0.494114 9.58385 -0.34137 7.74942 0.13086C5.91498 0.60309 4.6436 2.2559 4.64965 4.14482C4.6557 6.03374 5.95131 7.68049 7.78574 8.13455C7.76758 8.34645 7.74942 8.5644 7.74942 8.78236C7.75547 10.4957 8.39722 12.1425 9.55358 13.4078C9.17822 13.8195 8.92999 14.328 8.84523 14.879C6.44776 15.89 4.53462 17.785 3.49935 20.1704C3.36615 20.1522 3.23296 20.1461 3.09977 20.1461C0 20.1461 0 24.1783 0 26.3457C0 28.4889 1.08371 30.9953 4.13504 30.9953C6.19348 30.9953 9.19638 30.3112 11.1337 28.4162C12.4838 29.1185 13.9792 29.4697 15.4988 29.4454C17.0184 29.4697 18.5199 29.1125 19.8639 28.4162C21.8013 30.3112 24.8042 30.9953 26.8626 30.9953C29.914 30.9953 30.9977 28.4889 30.9977 26.3457C30.9977 24.1783 30.9977 20.1461 27.8979 20.1461ZM26.4933 20.4549C25.4823 21.0119 24.7436 21.9503 24.4349 23.0582L23.2059 22.5739C23.2301 22.2772 23.2422 21.9745 23.2422 21.6476C23.2543 19.8253 22.8608 18.0211 22.0919 16.3683C22.1282 16.2533 22.1524 16.1322 22.1706 16.0111C24.0837 16.9495 25.6094 18.5176 26.4933 20.4549ZM9.81391 15.4965C9.81391 15.4238 9.81996 15.3573 9.82602 15.2907C9.83813 14.77 10.0742 14.2735 10.4799 13.9466C12.4657 13.9708 13.3556 14.4915 13.7249 14.8366C13.5373 15.103 13.4343 15.4238 13.4283 15.7508C13.4343 15.9385 13.4707 16.1261 13.5373 16.3017C13.0832 16.6347 12.1872 17.0161 10.4799 17.0403C10.2195 16.8345 10.0319 16.562 9.92894 16.2472C9.85023 16.0111 9.81391 15.7508 9.81391 15.4965ZM14.4636 15.7568C14.4636 15.3391 14.9358 14.9819 15.4988 14.9819C16.0619 14.9819 16.5341 15.3391 16.5341 15.7568C16.5341 16.1746 16.0619 16.5318 15.4988 16.5318C14.9358 16.5318 14.4636 16.1746 14.4636 15.7568ZM17.2727 14.8366C17.642 14.4915 18.532 13.9708 20.5178 13.9466C20.9234 14.2735 21.1656 14.77 21.1716 15.2907C21.1777 15.3573 21.1838 15.4299 21.1838 15.4965C21.1898 15.7568 21.1474 16.0111 21.0687 16.2533C20.9719 16.5681 20.7781 16.8405 20.5178 17.0464C18.8105 17.0282 17.9145 16.6407 17.4543 16.3078C17.5209 16.1322 17.5633 15.9445 17.5633 15.7508C17.5633 15.4238 17.4604 15.109 17.2727 14.8366ZM22.2009 5.16193C21.9163 4.70786 21.5894 4.29012 21.214 3.9087C21.3291 3.37593 21.8376 3.03084 22.3704 3.10349C22.9032 3.17614 23.2906 3.66048 23.2543 4.20536C23.2119 4.74418 22.7639 5.16193 22.219 5.16193C22.2069 5.16193 22.2069 5.16193 22.2009 5.16193ZM22.213 1.03294C23.7629 1.02689 25.0766 2.17719 25.2885 3.71497C25.5004 5.25274 24.5317 6.70576 23.0303 7.11139C22.9455 6.77841 22.8366 6.45148 22.7034 6.13666C23.6297 5.91871 24.2835 5.08928 24.2896 4.13876C24.2956 3.18825 23.6418 2.35276 22.7155 2.12876C21.7892 1.90475 20.8326 2.34065 20.3907 3.18825C20.1122 2.97635 19.8155 2.78867 19.5128 2.61915C20.0698 1.63836 21.099 1.03294 22.213 1.03294ZM5.68492 4.13271C5.68492 2.72813 6.63544 1.49912 7.99764 1.14192C9.35984 0.784717 10.7886 1.39014 11.4849 2.6131C11.1822 2.78261 10.8855 2.97635 10.607 3.18219C10.1711 2.34065 9.20849 1.90475 8.28824 2.13481C7.368 2.36487 6.7202 3.18825 6.7202 4.13876C6.7202 5.08928 7.37405 5.91265 8.30035 6.13666C8.16716 6.45148 8.05818 6.77841 7.97342 7.11139C6.61727 6.74814 5.68492 5.52518 5.68492 4.13271ZM8.7968 5.16193C8.79074 5.16193 8.78469 5.16193 8.77864 5.16193C8.23376 5.16193 7.78574 4.74418 7.74336 4.20536C7.70098 3.66653 8.08845 3.18219 8.62123 3.10349C9.16005 3.02478 9.66255 3.37593 9.77758 3.90265C9.41433 4.29012 9.08135 4.70786 8.7968 5.16193ZM15.4988 2.58282C19.204 2.58282 22.213 5.36172 22.213 8.78236C22.2069 10.3383 21.5833 11.8216 20.4815 12.9174C18.1264 12.9537 16.9942 13.6318 16.4675 14.1706C15.85 13.874 15.1295 13.874 14.512 14.1706C13.9913 13.6318 12.8592 12.9537 10.498 12.9174C9.39617 11.8216 8.77864 10.3322 8.76653 8.78236C8.78469 5.36172 11.7936 2.58282 15.4988 2.58282ZM8.82102 16.0111C8.83918 16.1322 8.86945 16.2472 8.89972 16.3683C8.13083 18.0211 7.73731 19.8253 7.74942 21.6476C7.74942 21.9685 7.76153 22.2772 7.78574 22.5739L6.55673 23.0643C6.25402 21.9564 5.50935 21.0119 4.49829 20.4549C5.38827 18.5176 6.91393 16.9495 8.82102 16.0111ZM4.13504 29.9601C1.84654 29.9601 1.03527 28.0893 1.03527 26.3457C0.98684 25.1348 1.10187 23.924 1.38036 22.7495C2.47618 22.8463 3.62043 23.4094 3.62043 25.3225V27.8956C3.62043 28.1801 3.85049 28.4102 4.13504 28.4102C4.41959 28.4102 4.64965 28.1801 4.64965 27.8956V25.3225C4.64965 22.7434 3.0029 21.9927 1.85259 21.7808C2.14925 21.3933 2.60937 21.1693 3.09977 21.1814C5.20664 21.1814 5.67281 23.7424 5.69098 23.8513C5.71519 24.0027 5.81206 24.1419 5.94526 24.2146C6.07845 24.2933 6.24191 24.2994 6.38721 24.2449L7.91288 23.6394C8.13689 25.2801 8.97237 26.7755 10.2498 27.829C8.62728 29.2941 6.07239 29.9601 4.13504 29.9601ZM8.78469 21.6476C8.77864 20.2491 9.02686 18.8626 9.52331 17.5549C9.68677 17.7426 9.88656 17.9 10.1045 18.0272C10.1772 18.0635 10.2559 18.0817 10.3346 18.0817C12.3567 18.0817 13.513 17.6215 14.173 17.1311C14.9661 17.7123 16.0377 17.7123 16.8308 17.1311C17.4907 17.6215 18.647 18.0817 20.6691 18.0817C20.7479 18.0817 20.8266 18.0635 20.8992 18.0272C21.1172 17.9061 21.3109 17.7426 21.4804 17.5549C21.9769 18.8626 22.2251 20.2491 22.219 21.6476C22.219 27.2357 18.5683 28.4102 15.5049 28.4102C12.4414 28.4102 8.78469 27.2417 8.78469 21.6476ZM26.8626 29.9601C24.9253 29.9601 22.3704 29.2941 20.7418 27.8229C22.0192 26.7695 22.8487 25.2741 23.0787 23.6334L24.6044 24.2388C24.7497 24.2994 24.9132 24.2872 25.0464 24.2085C25.1796 24.1298 25.2764 23.9966 25.3006 23.8453C25.3188 23.7363 25.785 21.1754 27.8918 21.1754C28.3762 21.1633 28.8424 21.3873 29.139 21.7747C27.9887 21.9866 26.342 22.7434 26.342 25.3165V27.8895C26.342 28.1741 26.572 28.4041 26.8566 28.4041C27.1411 28.4041 27.3712 28.1741 27.3712 27.8895V25.3165C27.3712 23.3973 28.5154 22.8403 29.6112 22.7434C29.8897 23.924 30.0048 25.1348 29.9563 26.3396C29.9624 28.0954 29.1511 29.9601 26.8626 29.9601Z" fill="white"/>
<path d="M15.499 18.5977C15.2144 18.5977 14.9844 18.8277 14.9844 19.1123V19.6269C14.9844 19.9114 15.2144 20.1415 15.499 20.1415C15.7835 20.1415 16.0136 19.9114 16.0136 19.6269V19.1123C16.0136 18.8277 15.7835 18.5977 15.499 18.5977Z" fill="white"/>
<path d="M15.499 21.1836C15.2144 21.1836 14.9844 21.4137 14.9844 21.6982V22.2128C14.9844 22.4974 15.2144 22.7274 15.499 22.7274C15.7835 22.7274 16.0136 22.4974 16.0136 22.2128V21.6982C16.0136 21.4137 15.7835 21.1836 15.499 21.1836Z" fill="white"/>
<path d="M15.499 23.7617C15.2144 23.7617 14.9844 23.9918 14.9844 24.2763V24.7909C14.9844 25.0755 15.2144 25.3055 15.499 25.3055C15.7835 25.3055 16.0136 25.0755 16.0136 24.7909V24.2763C16.0136 23.9978 15.7835 23.7617 15.499 23.7617Z" fill="white"/>
<path d="M15.499 26.3438C15.2144 26.3438 14.9844 26.5738 14.9844 26.8584V27.373C14.9844 27.6575 15.2144 27.8876 15.499 27.8876C15.7835 27.8876 16.0136 27.6575 16.0136 27.373V26.8584C16.0136 26.5738 15.7835 26.3438 15.499 26.3438Z" fill="white"/>
<path d="M12.3994 10.3313C12.3994 11.754 13.7919 12.9164 15.4992 12.9164C17.2065 12.9164 18.5989 11.76 18.5989 10.3313C18.5989 8.90245 17.2065 7.74609 15.4992 7.74609C13.7919 7.74609 12.3994 8.90245 12.3994 10.3313ZM16.0138 9.29598C16.0138 9.58053 15.7837 9.81059 15.4992 9.81059C15.2146 9.81059 14.9846 9.58053 14.9846 9.29598C14.9846 9.01143 15.2146 8.78137 15.4992 8.78137C15.7837 8.78137 16.0138 9.01143 16.0138 9.29598ZM13.9493 9.31414C13.9856 10.1436 14.6698 10.7974 15.4992 10.7974C16.3286 10.7974 17.0127 10.1436 17.0491 9.31414C17.3639 9.55631 17.5516 9.93167 17.5697 10.3313C17.5697 11.1849 16.6434 11.8811 15.5052 11.8811C14.367 11.8811 13.4407 11.1849 13.4407 10.3313C13.4468 9.93167 13.6345 9.55631 13.9493 9.31414Z" fill="white"/>
</svg>
