<svg width="84" height="84" viewBox="0 0 84 84" fill="none" xmlns="http://www.w3.org/2000/svg">
<path d="M82.4032 42C83.2851 42 84.0032 42.7153 83.9697 43.5965C83.6308 52.5082 80.4622 61.0966 74.9022 68.1045C69.0107 75.5301 60.7807 80.7445 51.5501 82.8998C42.3196 85.0552 32.6314 84.0247 24.0607 79.9761C15.49 75.9274 8.54085 69.0986 4.34309 60.5999C0.145336 52.1013 -1.05417 42.4325 0.939605 33.1657C2.93338 23.899 8.00318 15.5791 15.3247 9.55883C22.6463 3.53858 31.789 0.17198 41.2664 0.00640791C50.2107 -0.149852 58.9567 2.55363 66.2396 7.70066C66.9597 8.20963 67.0914 9.21458 66.5554 9.91489C66.0194 10.6152 65.019 10.7455 64.2973 10.2388C57.588 5.52852 49.5458 3.05577 41.3221 3.19944C32.5654 3.35242 24.1178 6.46304 17.353 12.0255C10.5882 17.588 5.90385 25.2753 4.06168 33.8375C2.21951 42.3996 3.32781 51.3332 7.20638 59.1857C11.085 67.0381 17.5057 73.3477 25.4247 77.0885C33.3437 80.8293 42.2953 81.7814 50.824 79.79C59.3527 77.7985 66.9569 72.9806 72.4004 66.1197C77.5125 59.6764 80.4366 51.787 80.7737 43.5964C80.8099 42.7153 81.5214 42 82.4032 42Z" fill="url(#paint0_linear_976_236)"/>
<defs>
<linearGradient id="paint0_linear_976_236" x1="67" y1="9" x2="86.5" y2="11.5" gradientUnits="userSpaceOnUse">
<stop stop-color="#CE8745"/>
<stop offset="1" stop-color="#CE8745" stop-opacity="0"/>
</linearGradient>
</defs>
</svg>
