<svg width="51" height="36" viewBox="0 0 51 36" fill="none" xmlns="http://www.w3.org/2000/svg">
<rect x="26.4717" y="35.5195" width="21.0498" height="21.0498" rx="4" transform="rotate(-180 26.4717 35.5195)" fill="#CE8745"/>
<path d="M2.23253 0.999302C21.6239 0.616581 26.4717 12.7468 26.4717 18.8597C23.4418 22.2086 14.4159 26.4504 14.0332 16.6272C13.6504 6.80393 5.47505 6.15544 -2.53346e-05 7.05909C0.159442 6.52753 0.829208 4.57139 2.23253 0.999302Z" fill="#CE8745"/>
<rect x="50.4717" y="34.5273" width="21.0498" height="21.0498" rx="4" transform="rotate(-180 50.4717 34.5273)" fill="#CE8745"/>
<path d="M26.2325 0.0071142C45.6239 -0.375607 50.4717 11.7546 50.4717 17.8675C47.4418 21.2164 38.4159 25.4582 38.0332 15.635C37.6504 5.81174 29.475 5.16325 24 6.0669C24.1594 5.53534 24.8292 3.5792 26.2325 0.0071142Z" fill="#CE8745"/>
</svg>
