<svg width="49" height="33" viewBox="0 0 49 33" fill="none" xmlns="http://www.w3.org/2000/svg">
<rect x="23.552" width="19.8305" height="19.8305" rx="4" fill="#CE8745"/>
<path d="M46.3872 32.5205C28.119 32.881 23.552 21.4534 23.552 15.6945C26.4064 12.5397 34.9095 8.54354 35.27 17.7978C35.6306 27.052 43.3325 27.663 48.4904 26.8117C48.3402 27.3124 47.7092 29.1553 46.3872 32.5205Z" fill="#CE8745"/>
<rect width="19.8305" height="19.8305" rx="4" fill="#CE8745"/>
<path d="M22.8352 32.5205C4.56703 32.881 -1.64128e-06 21.4534 -6.34363e-07 15.6945C2.8544 12.5397 11.3575 8.54354 11.718 17.7978C12.0786 27.052 19.7805 27.663 24.9384 26.8117C24.7882 27.3124 24.1572 29.1553 22.8352 32.5205Z" fill="#CE8745"/>
</svg>
