<svg width="47" height="45" viewBox="0 0 47 45" fill="none" xmlns="http://www.w3.org/2000/svg">
<path d="M33.4 18.6016C26.0999 18.6016 20.2 24.5016 20.2 31.8016C20.2 39.1016 26.0999 45.0016 33.4 45.0016C40.7 45.0016 46.6 39.1016 46.6 31.8016C46.6 24.5016 40.7 18.6016 33.4 18.6016ZM33.4 43.4016C26.9999 43.4016 21.8 38.2016 21.8 31.8016C21.8 25.4016 26.9999 20.2016 33.4 20.2016C39.7999 20.2016 45 25.4016 45 31.8016C45 38.2016 39.7999 43.4016 33.4 43.4016Z" fill="white"/>
<path d="M1.6 33.4V10.9H37.3V17.9H38.9V7C38.9 4.9 37.2 3.1 35 3.1H29.6V2.3C29.6 1 28.6 0 27.3 0C26 0 25 1 25 2.3V3.1H14V2.3C14 1 13 0 11.7 0C10.4 0 9.3 1 9.3 2.3V3.1H3.9C1.8 3.1 0 4.8 0 7V33.4C0 35.5 1.7 37.3 3.9 37.3H19.4V35.7H3.9C2.6 35.7 1.6 34.6 1.6 33.4ZM26.4 2.3C26.4 1.9 26.7 1.5 27.2 1.5C27.7 1.5 28 1.8 28 2.3V5.4C28 5.8 27.7 6.2 27.2 6.2C26.7 6.2 26.4 5.9 26.4 5.4V2.3ZM10.9 2.3C10.9 1.9 11.2 1.5 11.7 1.5C12.2 1.5 12.5 1.8 12.5 2.3V5.4C12.5 5.8 12.2 6.2 11.7 6.2C11.2 6.2 10.9 5.9 10.9 5.4V2.3ZM3.9 4.7H9.3V5.5C9.3 6.8 10.3 7.8 11.6 7.8C12.9 7.8 13.9 6.8 13.9 5.5V4.7H24.8V5.5C24.8 6.8 25.8 7.8 27.1 7.8C28.4 7.8 29.4 6.8 29.4 5.5V4.7H34.8C36.1 4.7 37.1 5.7 37.1 7V9.3H1.6V7C1.6 5.7 2.6 4.7 3.9 4.7Z" fill="white"/>
<path d="M34.2001 29.5984V24.7984H32.6001V29.5984C31.9001 29.7984 31.4001 30.3984 31.2001 30.9984H28.0001V32.5984H31.2001C31.6001 33.5984 32.6001 34.2984 33.7001 34.0984C34.8001 33.9984 35.6001 33.0984 35.7001 32.0984C35.8001 30.9984 35.2001 29.9984 34.2001 29.5984ZM33.4001 32.5984C33.0001 32.5984 32.6001 32.2984 32.6001 31.7984C32.6001 31.2984 32.9001 30.9984 33.4001 30.9984C33.9001 30.9984 34.2001 31.2984 34.2001 31.7984C34.2001 32.2984 33.8001 32.5984 33.4001 32.5984ZM23.3001 30.9984H24.9001V32.5984H23.3001V30.9984ZM32.6001 40.2984H34.2001V41.8984H32.6001V40.2984ZM41.9001 30.9984H43.5001V32.5984H41.9001V30.9984ZM32.6001 21.6984H34.2001V23.2984H32.6001V21.6984ZM10.9001 17.0984C10.9001 16.1984 10.2001 15.4984 9.3001 15.4984H6.2001C5.3001 15.4984 4.6001 16.1984 4.6001 17.0984V20.1984C4.6001 21.0984 5.3001 21.7984 6.2001 21.7984H9.3001C10.2001 21.7984 10.9001 21.0984 10.9001 20.1984V17.0984ZM6.2001 20.1984V17.0984H9.3001V20.1984H6.2001ZM18.6001 17.0984C18.6001 16.1984 17.9001 15.4984 17.0001 15.4984H13.9001C13.0001 15.4984 12.3001 16.1984 12.3001 17.0984V20.1984C12.3001 21.0984 13.0001 21.7984 13.9001 21.7984H17.0001C17.9001 21.7984 18.6001 21.0984 18.6001 20.1984V17.0984ZM14.0001 20.1984V17.0984H17.1001V20.1984H14.0001ZM26.4001 19.3984V17.0984C26.4001 16.1984 25.7001 15.4984 24.8001 15.4984H21.7001C20.8001 15.4984 20.1001 16.1984 20.1001 17.0984V20.1984C20.1001 21.0984 20.8001 21.7984 21.7001 21.7984H23.3001V20.1984H21.7001V17.0984H24.8001V19.3984H26.4001ZM9.3001 24.7984H6.2001C5.3001 24.7984 4.6001 25.4984 4.6001 26.3984V29.4984C4.6001 30.3984 5.3001 31.0984 6.2001 31.0984H9.3001C10.2001 31.0984 10.9001 30.3984 10.9001 29.4984V26.3984C10.9001 25.4984 10.2001 24.7984 9.3001 24.7984ZM6.2001 29.4984V26.3984H9.3001V29.4984H6.2001ZM17.1001 24.7984H14.0001C13.1001 24.7984 12.4001 25.4984 12.4001 26.3984V29.4984C12.4001 30.3984 13.1001 31.0984 14.0001 31.0984H17.1001C18.0001 31.0984 18.7001 30.3984 18.7001 29.4984V26.3984C18.6001 25.4984 18.0001 24.7984 17.1001 24.7984ZM14.0001 29.4984V26.3984H17.1001V29.4984H14.0001ZM34.2001 17.7984V16.9984C34.2001 16.0984 33.5001 15.3984 32.6001 15.3984H29.5001C28.6001 15.3984 27.9001 16.0984 27.9001 16.9984V17.7984H29.5001V16.9984H32.6001V17.7984H34.2001Z" fill="#CE8745"/>
</svg>
