<svg width="732" height="939" viewBox="0 0 732 939" fill="none" xmlns="http://www.w3.org/2000/svg">
<rect width="732" height="939" fill="#D9D9D9"/>
<rect x="268" y="194" width="195" height="195" rx="97.5" fill="#787575"/>
<path d="M493.337 638.5C538.991 638.5 577.447 600.123 559.977 557.945V557.945C549.398 532.406 533.893 509.201 514.346 489.654C494.799 470.107 471.594 454.602 446.055 444.023C420.516 433.445 393.143 428 365.5 428C337.857 428 310.484 433.445 284.945 444.023C259.406 454.602 236.201 470.107 216.654 489.654C197.107 509.201 181.602 532.406 171.023 557.945V557.945C153.553 600.123 192.009 638.5 237.663 638.5L365.5 638.5H493.337Z" fill="#787575"/>
<path d="M195.352 779.704C191.731 776.232 188.912 771.752 186.896 766.264C184.88 760.776 183.872 754.859 183.872 748.512C183.872 742.091 184.917 736.099 187.008 730.536C189.099 724.936 192.067 720.381 195.912 716.872H205.32V717.768C201.4 721.651 198.376 726.317 196.248 731.768C194.12 737.181 193.056 742.763 193.056 748.512C193.056 754.224 194.083 759.731 196.136 765.032C198.189 770.333 201.083 774.925 204.816 778.808V779.704H195.352ZM237.104 734.288L223.048 768H213.247L227.472 735.352H210.055V727.176H237.104V734.288ZM244.112 738.656C244.262 734.661 245.568 731.581 248.032 729.416C250.496 727.251 253.838 726.168 258.056 726.168C260.856 726.168 263.246 726.653 265.224 727.624C267.24 728.595 268.752 729.92 269.76 731.6C270.806 733.28 271.328 735.165 271.328 737.256C271.328 739.72 270.712 741.736 269.48 743.304C268.248 744.835 266.811 745.88 265.168 746.44V746.664C267.296 747.373 268.976 748.549 270.208 750.192C271.44 751.835 272.056 753.944 272.056 756.52C272.056 758.835 271.515 760.888 270.432 762.68C269.387 764.435 267.838 765.816 265.784 766.824C263.768 767.832 261.36 768.336 258.56 768.336C254.08 768.336 250.496 767.235 247.808 765.032C245.158 762.829 243.758 759.507 243.608 755.064H252.904C252.942 756.707 253.408 758.013 254.304 758.984C255.2 759.917 256.507 760.384 258.224 760.384C259.68 760.384 260.8 759.973 261.584 759.152C262.406 758.293 262.816 757.173 262.816 755.792C262.816 754 262.238 752.712 261.08 751.928C259.96 751.107 258.15 750.696 255.648 750.696H253.856V742.912H255.648C257.552 742.912 259.083 742.595 260.24 741.96C261.435 741.288 262.032 740.112 262.032 738.432C262.032 737.088 261.659 736.043 260.912 735.296C260.166 734.549 259.139 734.176 257.832 734.176C256.414 734.176 255.35 734.605 254.64 735.464C253.968 736.323 253.576 737.387 253.464 738.656H244.112ZM280.147 760.328C281.416 759.32 281.995 758.853 281.883 758.928C285.541 755.904 288.416 753.421 290.507 751.48C292.635 749.539 294.427 747.504 295.883 745.376C297.339 743.248 298.067 741.176 298.067 739.16C298.067 737.629 297.712 736.435 297.003 735.576C296.293 734.717 295.229 734.288 293.811 734.288C292.392 734.288 291.272 734.829 290.451 735.912C289.667 736.957 289.275 738.451 289.275 740.392H280.035C280.109 737.219 280.781 734.568 282.051 732.44C283.357 730.312 285.056 728.744 287.147 727.736C289.275 726.728 291.627 726.224 294.203 726.224C298.645 726.224 301.987 727.363 304.227 729.64C306.504 731.917 307.643 734.885 307.643 738.544C307.643 742.539 306.28 746.253 303.555 749.688C300.829 753.085 297.357 756.408 293.139 759.656H308.259V767.44H280.147V760.328ZM354.974 768L346.966 755.96L339.91 768H329.046L341.646 748.008L328.766 728.688H339.91L347.806 740.56L354.75 728.688H365.614L353.126 748.512L366.118 768H354.974ZM397.744 756.016C398.304 758.965 400.022 760.44 402.896 760.44C404.875 760.44 406.275 759.563 407.096 757.808C407.918 756.053 408.328 753.197 408.328 749.24C407.507 750.397 406.387 751.293 404.968 751.928C403.55 752.563 401.963 752.88 400.208 752.88C397.819 752.88 395.691 752.395 393.824 751.424C391.958 750.416 390.483 748.941 389.4 747C388.355 745.021 387.832 742.632 387.832 739.832C387.832 737.069 388.392 734.661 389.512 732.608C390.67 730.555 392.294 728.968 394.384 727.848C396.512 726.728 399.014 726.168 401.888 726.168C407.414 726.168 411.278 727.885 413.48 731.32C415.683 734.755 416.784 739.813 416.784 746.496C416.784 751.349 416.336 755.363 415.44 758.536C414.582 761.672 413.107 764.061 411.016 765.704C408.963 767.347 406.144 768.168 402.56 768.168C399.723 768.168 397.296 767.608 395.28 766.488C393.302 765.368 391.771 763.893 390.688 762.064C389.643 760.235 389.046 758.219 388.896 756.016H397.744ZM402.392 745.32C403.96 745.32 405.211 744.853 406.144 743.92C407.078 742.949 407.544 741.643 407.544 740C407.544 738.208 407.059 736.827 406.088 735.856C405.118 734.885 403.811 734.4 402.168 734.4C400.526 734.4 399.219 734.904 398.248 735.912C397.315 736.883 396.848 738.227 396.848 739.944C396.848 741.549 397.315 742.856 398.248 743.864C399.219 744.835 400.6 745.32 402.392 745.32ZM425.029 738.656C425.179 734.661 426.485 731.581 428.949 729.416C431.413 727.251 434.755 726.168 438.973 726.168C441.773 726.168 444.163 726.653 446.141 727.624C448.157 728.595 449.669 729.92 450.677 731.6C451.723 733.28 452.245 735.165 452.245 737.256C452.245 739.72 451.629 741.736 450.397 743.304C449.165 744.835 447.728 745.88 446.085 746.44V746.664C448.213 747.373 449.893 748.549 451.125 750.192C452.357 751.835 452.973 753.944 452.973 756.52C452.973 758.835 452.432 760.888 451.349 762.68C450.304 764.435 448.755 765.816 446.701 766.824C444.685 767.832 442.277 768.336 439.477 768.336C434.997 768.336 431.413 767.235 428.725 765.032C426.075 762.829 424.675 759.507 424.525 755.064H433.821C433.859 756.707 434.325 758.013 435.221 758.984C436.117 759.917 437.424 760.384 439.141 760.384C440.597 760.384 441.717 759.973 442.501 759.152C443.323 758.293 443.733 757.173 443.733 755.792C443.733 754 443.155 752.712 441.997 751.928C440.877 751.107 439.067 750.696 436.565 750.696H434.773V742.912H436.565C438.469 742.912 440 742.595 441.157 741.96C442.352 741.288 442.949 740.112 442.949 738.432C442.949 737.088 442.576 736.043 441.829 735.296C441.083 734.549 440.056 734.176 438.749 734.176C437.331 734.176 436.267 734.605 435.557 735.464C434.885 736.323 434.493 737.387 434.381 738.656H425.029ZM471.704 756.016C472.264 758.965 473.981 760.44 476.856 760.44C478.834 760.44 480.234 759.563 481.056 757.808C481.877 756.053 482.288 753.197 482.288 749.24C481.466 750.397 480.346 751.293 478.928 751.928C477.509 752.563 475.922 752.88 474.168 752.88C471.778 752.88 469.65 752.395 467.784 751.424C465.917 750.416 464.442 748.941 463.36 747C462.314 745.021 461.792 742.632 461.792 739.832C461.792 737.069 462.352 734.661 463.472 732.608C464.629 730.555 466.253 728.968 468.344 727.848C470.472 726.728 472.973 726.168 475.848 726.168C481.373 726.168 485.237 727.885 487.44 731.32C489.642 734.755 490.744 739.813 490.744 746.496C490.744 751.349 490.296 755.363 489.4 758.536C488.541 761.672 487.066 764.061 484.976 765.704C482.922 767.347 480.104 768.168 476.52 768.168C473.682 768.168 471.256 767.608 469.24 766.488C467.261 765.368 465.73 763.893 464.648 762.064C463.602 760.235 463.005 758.219 462.856 756.016H471.704ZM476.352 745.32C477.92 745.32 479.17 744.853 480.104 743.92C481.037 742.949 481.504 741.643 481.504 740C481.504 738.208 481.018 736.827 480.048 735.856C479.077 734.885 477.77 734.4 476.128 734.4C474.485 734.4 473.178 734.904 472.208 735.912C471.274 736.883 470.808 738.227 470.808 739.944C470.808 741.549 471.274 742.856 472.208 743.864C473.178 744.835 474.56 745.32 476.352 745.32ZM497.029 779.704V778.808C500.762 774.925 503.655 770.333 505.709 765.032C507.762 759.731 508.789 754.224 508.789 748.512C508.789 742.763 507.725 737.181 505.597 731.768C503.469 726.317 500.445 721.651 496.525 717.768V716.872H505.933C509.778 720.381 512.746 724.936 514.837 730.536C516.927 736.099 517.973 742.091 517.973 748.512C517.973 754.859 516.965 760.776 514.949 766.264C512.933 771.752 510.114 776.232 506.493 779.704H497.029Z" fill="#787575"/>
</svg>
