<svg width="762" height="1269" viewBox="0 0 762 1269" fill="none" xmlns="http://www.w3.org/2000/svg">
<rect width="762" height="1269" fill="#D9D9D9"/>
<rect x="283" y="336" width="195" height="195" rx="97.5" fill="#787575"/>
<path d="M508.337 780.5C553.991 780.5 592.447 742.123 574.977 699.945V699.945C564.398 674.406 548.893 651.201 529.346 631.654C509.799 612.107 486.594 596.602 461.055 586.023C435.516 575.445 408.143 570 380.5 570C352.857 570 325.484 575.445 299.945 586.023C274.406 596.602 251.201 612.107 231.654 631.654C212.107 651.201 196.602 674.406 186.023 699.945V699.945C168.553 742.123 207.009 780.5 252.663 780.5L380.5 780.5H508.337Z" fill="#787575"/>
<path d="M210.352 921.704C206.731 918.232 203.912 913.752 201.896 908.264C199.88 902.776 198.872 896.859 198.872 890.512C198.872 884.091 199.917 878.099 202.008 872.536C204.099 866.936 207.067 862.381 210.912 858.872H220.32V859.768C216.4 863.651 213.376 868.317 211.248 873.768C209.12 879.181 208.056 884.763 208.056 890.512C208.056 896.224 209.083 901.731 211.136 907.032C213.189 912.333 216.083 916.925 219.816 920.808V921.704H210.352ZM252.104 876.288L238.048 910H228.247L242.472 877.352H225.055V869.176H252.104V876.288ZM278.992 880.152C278.694 878.771 278.171 877.744 277.424 877.072C276.678 876.363 275.614 876.008 274.232 876.008C272.104 876.008 270.574 876.941 269.64 878.808C268.707 880.637 268.222 883.549 268.184 887.544C269.006 886.237 270.182 885.211 271.712 884.464C273.28 883.717 274.998 883.344 276.864 883.344C280.523 883.344 283.454 884.501 285.656 886.816C287.896 889.131 289.016 892.36 289.016 896.504C289.016 899.229 288.456 901.619 287.336 903.672C286.254 905.725 284.648 907.331 282.52 908.488C280.43 909.645 277.947 910.224 275.072 910.224C269.323 910.224 265.328 908.432 263.088 904.848C260.848 901.227 259.728 896.037 259.728 889.28C259.728 882.187 260.904 876.923 263.256 873.488C265.646 870.016 269.454 868.28 274.68 868.28C277.48 868.28 279.832 868.84 281.736 869.96C283.678 871.043 285.134 872.48 286.104 874.272C287.112 876.064 287.71 878.024 287.896 880.152H278.992ZM274.568 890.904C272.963 890.904 271.619 891.389 270.536 892.36C269.491 893.293 268.968 894.637 268.968 896.392C268.968 898.184 269.454 899.584 270.424 900.592C271.432 901.6 272.851 902.104 274.68 902.104C276.323 902.104 277.611 901.619 278.544 900.648C279.515 899.64 280 898.277 280 896.56C280 894.805 279.534 893.424 278.6 892.416C277.667 891.408 276.323 890.904 274.568 890.904ZM296.897 902.328C298.166 901.32 298.745 900.853 298.633 900.928C302.291 897.904 305.166 895.421 307.257 893.48C309.385 891.539 311.177 889.504 312.633 887.376C314.089 885.248 314.817 883.176 314.817 881.16C314.817 879.629 314.462 878.435 313.753 877.576C313.043 876.717 311.979 876.288 310.561 876.288C309.142 876.288 308.022 876.829 307.201 877.912C306.417 878.957 306.025 880.451 306.025 882.392H296.785C296.859 879.219 297.531 876.568 298.801 874.44C300.107 872.312 301.806 870.744 303.897 869.736C306.025 868.728 308.377 868.224 310.953 868.224C315.395 868.224 318.737 869.363 320.977 871.64C323.254 873.917 324.393 876.885 324.393 880.544C324.393 884.539 323.03 888.253 320.305 891.688C317.579 895.085 314.107 898.408 309.889 901.656H325.009V909.44H296.897V902.328ZM371.724 910L363.716 897.96L356.66 910H345.796L358.396 890.008L345.516 870.688H356.66L364.556 882.56L371.5 870.688H382.364L369.876 890.512L382.868 910H371.724ZM403.182 878.024V869.12H418.694V910H408.726V878.024H403.182ZM427.709 902.328C428.978 901.32 429.557 900.853 429.445 900.928C433.104 897.904 435.978 895.421 438.069 893.48C440.197 891.539 441.989 889.504 443.445 887.376C444.901 885.248 445.629 883.176 445.629 881.16C445.629 879.629 445.274 878.435 444.565 877.576C443.856 876.717 442.792 876.288 441.373 876.288C439.954 876.288 438.834 876.829 438.013 877.912C437.229 878.957 436.837 880.451 436.837 882.392H427.597C427.672 879.219 428.344 876.568 429.613 874.44C430.92 872.312 432.618 870.744 434.709 869.736C436.837 868.728 439.189 868.224 441.765 868.224C446.208 868.224 449.549 869.363 451.789 871.64C454.066 873.917 455.205 876.885 455.205 880.544C455.205 884.539 453.842 888.253 451.117 891.688C448.392 895.085 444.92 898.408 440.701 901.656H455.821V909.44H427.709V902.328ZM483.053 880.152C482.755 878.771 482.232 877.744 481.485 877.072C480.739 876.363 479.675 876.008 478.293 876.008C476.165 876.008 474.635 876.941 473.701 878.808C472.768 880.637 472.283 883.549 472.245 887.544C473.067 886.237 474.243 885.211 475.773 884.464C477.341 883.717 479.059 883.344 480.925 883.344C484.584 883.344 487.515 884.501 489.717 886.816C491.957 889.131 493.077 892.36 493.077 896.504C493.077 899.229 492.517 901.619 491.397 903.672C490.315 905.725 488.709 907.331 486.581 908.488C484.491 909.645 482.008 910.224 479.133 910.224C473.384 910.224 469.389 908.432 467.149 904.848C464.909 901.227 463.789 896.037 463.789 889.28C463.789 882.187 464.965 876.923 467.317 873.488C469.707 870.016 473.515 868.28 478.741 868.28C481.541 868.28 483.893 868.84 485.797 869.96C487.739 871.043 489.195 872.48 490.165 874.272C491.173 876.064 491.771 878.024 491.957 880.152H483.053ZM478.629 890.904C477.024 890.904 475.68 891.389 474.597 892.36C473.552 893.293 473.029 894.637 473.029 896.392C473.029 898.184 473.515 899.584 474.485 900.592C475.493 901.6 476.912 902.104 478.741 902.104C480.384 902.104 481.672 901.619 482.605 900.648C483.576 899.64 484.061 898.277 484.061 896.56C484.061 894.805 483.595 893.424 482.661 892.416C481.728 891.408 480.384 890.904 478.629 890.904ZM511.597 898.016C512.157 900.965 513.875 902.44 516.749 902.44C518.728 902.44 520.128 901.563 520.949 899.808C521.771 898.053 522.181 895.197 522.181 891.24C521.36 892.397 520.24 893.293 518.821 893.928C517.403 894.563 515.816 894.88 514.061 894.88C511.672 894.88 509.544 894.395 507.677 893.424C505.811 892.416 504.336 890.941 503.253 889C502.208 887.021 501.685 884.632 501.685 881.832C501.685 879.069 502.245 876.661 503.365 874.608C504.523 872.555 506.147 870.968 508.237 869.848C510.365 868.728 512.867 868.168 515.741 868.168C521.267 868.168 525.131 869.885 527.333 873.32C529.536 876.755 530.637 881.813 530.637 888.496C530.637 893.349 530.189 897.363 529.293 900.536C528.435 903.672 526.96 906.061 524.869 907.704C522.816 909.347 519.997 910.168 516.413 910.168C513.576 910.168 511.149 909.608 509.133 908.488C507.155 907.368 505.624 905.893 504.541 904.064C503.496 902.235 502.899 900.219 502.749 898.016H511.597ZM516.245 887.32C517.813 887.32 519.064 886.853 519.997 885.92C520.931 884.949 521.397 883.643 521.397 882C521.397 880.208 520.912 878.827 519.941 877.856C518.971 876.885 517.664 876.4 516.021 876.4C514.379 876.4 513.072 876.904 512.101 877.912C511.168 878.883 510.701 880.227 510.701 881.944C510.701 883.549 511.168 884.856 512.101 885.864C513.072 886.835 514.453 887.32 516.245 887.32ZM536.923 921.704V920.808C540.656 916.925 543.549 912.333 545.603 907.032C547.656 901.731 548.683 896.224 548.683 890.512C548.683 884.763 547.619 879.181 545.491 873.768C543.363 868.317 540.339 863.651 536.419 859.768V858.872H545.827C549.672 862.381 552.64 866.936 554.731 872.536C556.821 878.099 557.867 884.091 557.867 890.512C557.867 896.859 556.859 902.776 554.843 908.264C552.827 913.752 550.008 918.232 546.387 921.704H536.923Z" fill="#787575"/>
</svg>
